# AST/ASF file generated using VICON BodyLanguage
# -----------------------------------------------
:version 1.10
:name VICON
:units
  mass 1.0
  length 0.45
  angle deg
:documentation
   .ast/.asf automatically generated from VICON data using
   VICON BodyBuilder and BodyLanguage model FoxedUp or BRILLIANT.MOD
:root
   order TX TY TZ RX RY RZ
   axis XYZ
   position 0 0 0  
   orientation 0 0 0 
:bonedata
  begin
     id 1 
     name lhipjoint
     direction 0.662698 -0.695252 0.27831 
     length 2.53073 
     axis 0 0 0  XYZ
  end
  begin
     id 2 
     name lfemur
     direction 0.34202 -0.939693 0  
     length 7.16147  
     axis 0 0 20  XYZ
    dof rx ry rz
    limits (-160.0 20.0)
           (-70.0 70.0)
           (-60.0 70.0)
  end
  begin
     id 3 
     name ltibia
     direction 0.34202 -0.939693 0   
     length 7.63967   
     axis 0 0 20   XYZ
    dof rx
    limits (-10.0 170.0)
  end
  begin
     id 4 
     name lfoot
     direction 0.0938457 -0.257721 0.961651   
     length 1.89793   
     axis -90 7.62852e-016 20   XYZ
    dof rx rz
    limits (-45.0 90.0)
           (-70.0 20.0)
  end
  begin
     id 5 
     name ltoes
     direction -0.00116841 -0.0030592 0.999995   
     length 0.955649   
     axis -90 7.62852e-016 20   XYZ
    dof rx
    limits (-90.0 20.0)
  end
  begin
     id 6 
     name rhipjoint
     direction -0.649445 -0.705948 0.282592   
     length 2.49238  
     axis 0 0 0  XYZ 
  end
  begin
     id 7 
     name rfemur
     direction -0.34202 -0.939693 0   
     length 6.90728   
     axis 0 0 -20   XYZ
    dof rx ry rz
    limits (-160.0 20.0)
           (-70.0 70.0)
           (-70.0 60.0)
  end
  begin
     id 8 
     name rtibia
     direction -0.34202 -0.939693 0   
     length 7.72868   
     axis 0 0 -20   XYZ
    dof rx
    limits (-10.0 170.0)
 end
 begin
     id 9 
     name rfoot
     direction -0.0920068 -0.252865 0.963117   
     length 1.97476  
     axis -90 -7.62852e-016 -20   XYZ
    dof rx rz
    limits (-45.0 90.0)
           (-20.0 70.0)
  end
  begin
     id 10 
     name rtoes
     direction 0.000391322 0.00230649 0.999997   
     length 0.992641   
     axis -90 -7.62852e-016 -20   XYZ
    dof rx
    limits (-90.0 20.0)
  end
  begin
     id 11 
     name lowerback
     direction -0.00875327 0.998321 -0.0572635   
     length 2.20024   
     axis 0 0 0   XYZ
    dof rx ry rz
    limits (-20.0 45.0)
           (-30.0 30.0)
           (-30.0 30.0)
  end
  begin
     id 12 
     name upperback
     direction 0.00753931 0.999972 -0.000360425   
     length 2.20538   
     axis 0 0 0   XYZ
    dof rx ry rz
    limits (-20.0 45.0)
           (-30.0 30.0)
           (-30.0 30.0)
  end
  begin
     id 13 
     name thorax
     direction 0.0117767 0.999601 0.0256663   
     length 2.21508   
     axis 0 0 0   XYZ
    dof rx ry rz
    limits (-20.0 45.0)
           (-30.0 30.0)
           (-30.0 30.0)
  end
  begin
     id 14 
     name lowerneck
     direction 0.060228 0.994909 0.0807986   
     length 1.7607   
     axis 0 0 0   XYZ
    dof rx ry rz
    limits (-20.0 45.0)
           (-30.0 30.0)
           (-30.0 30.0)
  end
  begin
     id 15 
     name upperneck
     direction -0.0563647 0.959594 -0.275685   
     length 1.75612   
     axis 0 0 0   XYZ
    dof rx ry rz
    limits (-20.0 45.0)
           (-30.0 30.0)
           (-30.0 30.0)
  end
  begin
     id 16
     name head
     direction -0.0161544 0.99458 -0.102714  
     length 1.79288  
     axis 0 0 0   XYZ
    dof rx ry rz
    limits (-20.0 45.0)
           (-30.0 30.0)
           (-30.0 30.0)
  end
  begin
     id 17 
     name lclavicle
     direction 0.93913 0.332189 -0.087669  
     length 3.52087  
     axis 0 0 0   XYZ
    dof ry rz
    limits (-20.0 10.0)
           (0.0 20.0)
  end
  begin
     id 18 
     name lhumerus
     direction 1 -4.48974e-011 -2.70836e-027   
     length 5.35289   
     axis -180 -30 -90   XYZ
    dof rx ry rz
    limits (-60.0 90.0)
           (-90.0 90.0)
           (-90.0 90.0)
  end
  begin
     id 19
     name lradius
     direction 1 -4.48961e-011 -9.76021e-027   
     length 3.27727   
     axis -180 -30 -90   XYZ
    dof rx
    limits (-10.0 170.0)
  end
  begin
     id 20
     name lwrist
     direction 1 -4.49103e-011 -2.23668e-026   
     length 1.63864   
     axis 1.44924e-014 90 90   XYZ
    dof ry
    limits (-180.0 0.0)
 end
  begin
     id 21 
     name lhand
     direction 1 3.0697e-005 0.000161777   
     length 0.54443   
     axis 2.85318e-014 90 90   XYZ
    dof rx rz
    limits (-90.0 90.0)
           (-45.0 45.0)
  end
  begin
     id 22 
     name lfingers
     direction 1 -4.49027e-011 -8.9447e-026   
     length 0.438912   
     axis 5.70628e-014 90 90   XYZ
    dof rx
    limits (0.0 90.0)
  end
  begin
     id 23
     name lthumb
     direction 0.707058 2.6516e-005 0.707156   
     length 0.630274   
     axis -90 45 -3.53137e-014   XYZ
    dof rx rz
    limits (-45.0 45.0)
           (-45.0 45.0)
  end
  begin
     id 24 
     name rclavicle
     direction -0.95274 0.284984 -0.105215   
     length 3.43401  
     axis 0 0 0   XYZ 
    dof ry rz
    limits (-10.0 20.0)
           (-20.0 0.0)
  end
  begin
     id 25 
     name rhumerus
     direction -0.999999 -0.000575019 -0.00106829  
     length 5.52077   
     axis -180 30 90   XYZ
    dof rx ry rz
    limits (-90.0 60.0)
           (-90.0 90.0)
           (-90.0 90.0)
  end
  begin
     id 26 
     name rradius
     direction -1 -4.4879e-011 -6.35415e-027   
     length 3.32364   
     axis -180 30 90   XYZ
    dof rx
    limits (-10.0 170.0)
  end
  begin
     id 27 
     name rwrist
     direction -1 -4.49048e-011 -9.98542e-027   
     length 1.66182   
     axis 6.32482e-015 -90 -90   XYZ
    dof ry
    limits (-180.0 0.0)
  end
  begin
     id 28
     name rhand
     direction -1 -4.48978e-011 -1.99771e-026   
     length 0.732235   
     axis 1.27479e-014 -90 -90   XYZ
    dof rx rz
    limits (-90.0 90.0)
           (-45.0 45.0)
  end
  begin
     id 29
     name rfingers
     direction -1 -4.49144e-011 -3.99245e-026   
     length 0.590347   
     axis 2.5496e-014 -90 -90   XYZ
    dof rx
    limits (0.0 90.0)
  end
  begin
     id 30
     name rthumb
     direction -0.707107 -6.35121e-011 0.707107   
     length 0.847624   
     axis -90 -45 -2.82974e-014   XYZ
    dof rx rz
    limits (-45.0 45.0)
           (-45.0 45.0)
  end
:hierarchy
  begin
    root lhipjoint rhipjoint lowerback
    lhipjoint lfemur
    lfemur ltibia
    ltibia lfoot
    lfoot ltoes
    rhipjoint rfemur
    rfemur rtibia
    rtibia rfoot
    rfoot rtoes
    lowerback upperback
    upperback thorax
    thorax lowerneck lclavicle rclavicle
    lowerneck upperneck
    upperneck head
    lclavicle lhumerus
    lhumerus lradius
    lradius lwrist
    lwrist lhand lthumb
    lhand lfingers
    rclavicle rhumerus
    rhumerus rradius
    rradius rwrist
    rwrist rhand rthumb
    rhand rfingers
  end

#!OML:ASF G:\Work\Work\Patient Classification 1\Elijah\terrain1\Elijah.ASF
:FULLY-SPECIFIED
:DEGREES
78
root 15.8712 24.0341 -1.66274 7.24669 1.54198 2.41973
lowerback 2.32444 -0.0170226 -4.45489
upperback 0.448052 -0.149233 -1.9355
thorax -0.837367 -0.0649561 0.514604
lowerneck -13.855 15.17 10.2765
upperneck 35.1117 25.484 -12.6369
head 18.9454 10.2581 -1.87597
rclavicle -6.95746e-015 1.27222e-014
rhumerus -42.8159 -11.1822 -79.8612
rradius 30.3951
rwrist 2.25575
rhand -11.2833 22.3572
rfingers 7.12502
rthumb 14.7475 -7.09815
lclavicle -6.95746e-015 1.27222e-014
lhumerus -27.4934 31.9377 69.6046
lradius 21.5972
lwrist -4.5331
lhand -14.9953 27.3355
lfingers 7.12502
lthumb 11.1693 57.0183
rfemur -17.2183 -7.93388 23.7489
rtibia 2.06736e-014
rfoot 11.4325 -6.16816
rtoes -13.5524
lfemur 1.71495 3.04794 -24.7171
ltibia 24.5734
lfoot -1.03177 -10.0884
ltoes -9.34788
79
root 15.8656 24.0088 -1.53859 7.2407 1.66576 2.59395
lowerback 2.45077 -0.102126 -4.5723
upperback 0.137609 -0.284444 -1.73392
thorax -1.22014 -0.121003 0.791777
lowerneck -12.0723 15.4123 10.9031
upperneck 34.1952 26.0798 -13.7659
head 18.4818 10.6237 -2.42527
rclavicle 2.28602e-015 -6.75868e-015
rhumerus -43.1619 -10.3598 -79.7692
rradius 30.5422
rwrist 1.92825
rhand -11.2818 22.137
rfingers 7.12502
rthumb 14.749 -7.31829
lclavicle 2.28602e-015 -6.75868e-015
lhumerus -28.6709 32.7557 68.842
lradius 21.3517
lwrist -5.32501
lhand -14.7871 27.0585
lfingers 7.12502
lthumb 11.3701 56.7302
rfemur -16.5858 -7.72075 23.6077
rtibia -1.59028e-015
rfoot 11.1178 -4.45652
rtoes -11.1821
lfemur 1.91485 3.01273 -24.7158
ltibia 25.0002
lfoot -0.596896 -10.6144
ltoes -12.1643
80
root 15.8598 23.9849 -1.41084 7.3475 1.71336 2.8388
lowerback 2.28835 -0.0733528 -4.50126
upperback 0.0361961 -0.238759 -1.77702
thorax -1.23592 -0.0971658 0.706002
lowerneck -11.5737 15.5672 11.2243
upperneck 34.6029 26.4099 -13.7669
head 18.7288 10.8091 -2.42887
rclavicle 2.5842e-015 2.94201e-014
rhumerus -43.0738 -10.2088 -79.8469
rradius 30.5728
rwrist 1.67069
rhand -11.1843 21.8718
rfingers 7.12502
rthumb 14.843 -7.57657
lclavicle 2.5842e-015 2.94201e-014
lhumerus -29.1967 33.1111 68.3586
lradius 21.274
lwrist -5.81069
lhand -14.5725 25.5633
lfingers 7.12502
lthumb 11.577 55.2235
rfemur -16.1159 -7.45641 23.3454
rtibia 3.49861e-014
rfoot 10.5102 -3.1146
rtoes -9.23628
lfemur 2.02958 2.87186 -24.8086
ltibia 25.3443
lfoot -0.106893 -10.9085
ltoes -13.6408
81
root 15.8523 23.9623 -1.28248 7.39176 1.63459 2.76588
lowerback 2.42453 -0.0162912 -4.09541
upperback -0.157017 -0.166973 -1.73714
thorax -1.51504 -0.057076 0.518147
lowerneck -12.3977 15.1713 11.1847
upperneck 35.0616 25.796 -13.6139
head 19.0446 10.4966 -2.46596
rclavicle -2.08724e-015 -9.54166e-015
rhumerus -43.048 -10.2448 -79.7905
rradius 30.4376
rwrist 1.90928
rhand -11.2097 21.7022
rfingers 7.12502
rthumb 14.8185 -7.74797
lclavicle -2.08724e-015 -9.54166e-015
lhumerus -30.0735 33.1337 67.806
lradius 21.4668
lwrist -5.88619
lhand -14.5255 24.5485
lfingers 7.12502
lthumb 11.6224 54.2061
rfemur -15.6918 -7.0317 23.3665
rtibia 2.70347e-014
rfoot 9.92627 -2.5229
rtoes -7.08512
lfemur 2.20335 2.87067 -24.5748
ltibia 25.654
lfoot 0.301388 -11.1455
ltoes -14.2512
82
root 15.845 23.9436 -1.14519 7.32145 1.57989 2.73997
lowerback 1.81033 0.106076 -3.712
upperback 0.256612 0.0553988 -1.67806
thorax -0.753814 0.0361753 0.358427
lowerneck -12.1222 15.1248 11.2818
upperneck 34.3735 25.7525 -14.1449
head 18.7115 10.4927 -2.73159
rclavicle 4.67144e-015 -9.54166e-015
rhumerus -42.3129 -10.553 -79.655
rradius 30.3772
rwrist 2.10442
rhand -11.2468 21.4866
rfingers 7.12502
rthumb 14.7827 -7.96624
lclavicle 4.67144e-015 -9.54166e-015
lhumerus -29.823 33.8196 67.8157
lradius 21.2241
lwrist -6.52837
lhand -14.6901 24.7413
lfingers 7.12502
lthumb 11.4637 54.4079
rfemur -15.1636 -6.66243 23.2809
rtibia -2.3059e-014
rfoot 9.18467 -2.69119
rtoes -5.19226
lfemur 2.49444 3.02649 -24.3409
ltibia 26.002
lfoot 0.978864 -11.7102
ltoes -12.9124
83
root 15.8394 23.9193 -1.00257 7.24067 1.64465 2.97818
lowerback 1.72991 0.154701 -3.52537
upperback 0.280179 0.128153 -1.76143
thorax -0.686393 0.0708371 0.167204
lowerneck -13.2959 15.4471 10.6422
upperneck 34.9316 26.214 -13.3902
head 19.1102 10.5623 -2.09319
rclavicle -1.98785e-016 -1.19271e-015
rhumerus -42.2605 -10.5783 -79.6444
rradius 30.4113
rwrist 1.96292
rhand -11.4545 21.6774
rfingers 7.12502
rthumb 14.5826 -7.78993
lclavicle -1.98785e-016 -1.19271e-015
lhumerus -30.2432 34.2128 67.345
lradius 21.0994
lwrist -7.06573
lhand -14.433 24.6598
lfingers 7.12502
lthumb 11.7116 54.3124
rfemur -14.5982 -6.44499 22.9524
rtibia 3.33958e-014
rfoot 8.2143 -3.19259
rtoes -4.26773
lfemur 2.82448 3.02322 -24.3857
ltibia 26.3756
lfoot 1.90503 -12.3193
ltoes -11.7543
84
root 15.8296 23.8918 -0.865717 7.13339 1.87313 3.20028
lowerback 1.75977 -0.169797 -3.98173
upperback -0.272622 -0.330445 -1.34697
thorax -1.25249 -0.141151 0.858609
lowerneck -11.3309 15.4299 11.0611
upperneck 34.915 26.4956 -14.0333
head 18.9185 10.8088 -2.52938
rclavicle 7.03201e-015 -1.19271e-015
rhumerus -42.9537 -9.13944 -79.4089
rradius 30.2128
rwrist 1.74553
rhand -11.5626 21.9146
rfingers 7.12502
rthumb 14.4784 -7.56022
lclavicle 7.03201e-015 -1.19271e-015
lhumerus -32.8817 34.2872 66.274
lradius 21.8041
lwrist -6.53544
lhand -13.8379 24.0811
lfingers 7.12502
lthumb 12.2854 53.7002
rfemur -14.0207 -6.36048 22.738
rtibia -4.13472e-014
rfoot 7.35586 -3.76214
rtoes -3.16083
lfemur 3.1302 2.70082 -24.4208
ltibia 26.811
lfoot 2.64707 -12.6757
ltoes -12.7141
85
root 15.8282 23.8716 -0.741925 7.16369 1.44158 3.43733
lowerback 1.72163 0.0800705 -3.58529
upperback -0.0211399 0.0190348 -1.56786
thorax -0.987864 0.0236482 0.401262
lowerneck -12.1409 15.4198 10.8149
upperneck 34.9748 26.5094 -14.0111
head 19.1116 10.7202 -2.4122
rclavicle -9.0944e-015 6.36111e-015
rhumerus -41.9515 -9.88598 -79.3916
rradius 29.7597
rwrist 1.98381
rhand -11.4877 21.862
rfingers 7.12502
rthumb 14.5506 -7.60769
lclavicle -9.0944e-015 6.36111e-015
lhumerus -32.4405 34.1079 66.5087
lradius 21.9457
lwrist -6.25603
lhand -13.7581 24.0547
lfingers 7.12502
lthumb 12.3624 53.6692
rfemur -13.7348 -5.62111 22.4193
rtibia -3.02153e-014
rfoot 6.91642 -4.26303
rtoes -2.12645
lfemur 3.10738 2.72824 -24.6956
ltibia 27.4382
lfoot 3.13608 -12.5308
ltoes -13.0102
